<?xml version="1.0" encoding="utf-8"?>
<!-- Generator: Adobe Illustrator 23.0.3, SVG Export Plug-In . SVG Version: 6.00 Build 0)  -->
<svg version="1.1" id="Layer_1" xmlns="http://www.w3.org/2000/svg" xmlns:xlink="http://www.w3.org/1999/xlink" x="0px" y="0px"
	 viewBox="0 0 30 30" style="enable-background:new 0 0 30 30;" xml:space="preserve">
<style type="text/css">
	.st0{fill:none;}
	.st1{fill:none;stroke:#ED6E64;stroke-width:2;stroke-linecap:round;stroke-linejoin:round;stroke-miterlimit:10;}
</style>
<rect x="0" y="0" class="st0" width="30.1" height="30"/>
<g>
	<path class="st1" d="M8.5,21.5L8.5,21.5c-1.2-1.2-1.2-3,0-4.2l9-9c1.2-1.2,3-1.2,4.2,0l0,0c1.2,1.2,1.2,3,0,4.2l-9,9
		C11.5,22.6,9.6,22.6,8.5,21.5z"/>
	<path class="st1" d="M13.4,2.4c3.5,1.9,0.1,6.5,2.4,7.6"/>
	<path class="st1" d="M7.4,7c4,0.5,2.6,5.9,5.1,6.2"/>
	<path class="st1" d="M2.3,13.2c3.6-1.7,5.3,3.6,7.6,2.5"/>
	<path class="st1" d="M27.7,17.4c-1.6-3.6-6.4-0.7-7.4-3"/>
	<path class="st1" d="M22.6,23c-0.1-4-5.7-3.1-5.7-5.6"/>
	<path class="st1" d="M16,27.6c2-3.5-3.2-5.6-1.9-7.8"/>
</g>
</svg>
