<?xml version="1.0" encoding="utf-8"?>
<!-- Generator: Adobe Illustrator 23.0.3, SVG Export Plug-In . SVG Version: 6.00 Build 0)  -->
<svg version="1.1" id="Layer_1" xmlns="http://www.w3.org/2000/svg" xmlns:xlink="http://www.w3.org/1999/xlink" x="0px" y="0px"
	 viewBox="0 0 30 30" style="enable-background:new 0 0 30 30;" xml:space="preserve">
<style type="text/css">
	.st0{fill:none;}
	.st1{fill:none;stroke:#ED6E64;stroke-width:2;stroke-linecap:round;stroke-linejoin:round;stroke-miterlimit:10;}
</style>
<rect x="0" y="0" class="st0" width="30.1" height="30"/>
<g>
	<path class="st1" d="M22.3,12.3c-1.7-2.2-4.6-5-7.8-5C9.2,7.2,4.9,15,4.9,15s-1.1,2.6-3.3,4.8"/>
	<path class="st1" d="M1.8,10.4C2.4,11,3,11.7,3.5,12.3"/>
	<path class="st1" d="M6.3,17.1"/>
	<path class="st1" d="M28,10.4c-2.3,2.2-3.1,3.3-3.9,4.6c-1.6,2.6-4.3,7.8-9.6,7.8c-3,0-5.7-2.5-7.5-4.7"/>
	<path class="st1" d="M27.8,19.8c-0.9-0.9-1.6-1.8-2.2-2.6"/>
	<line class="st1" x1="14.1" y1="10.8" x2="14.1" y2="19.6"/>
	<line class="st1" x1="17.9" y1="12.8" x2="17.9" y2="18.2"/>
	<line class="st1" x1="10.7" y1="12.8" x2="10.7" y2="18.2"/>
</g>
</svg>
