<?xml version="1.0" encoding="utf-8"?>
<!-- Generator: Adobe Illustrator 23.0.3, SVG Export Plug-In . SVG Version: 6.00 Build 0)  -->
<svg version="1.1" id="Layer_1" xmlns="http://www.w3.org/2000/svg" xmlns:xlink="http://www.w3.org/1999/xlink" x="0px" y="0px"
	 viewBox="0 0 30 30" style="enable-background:new 0 0 30 30;" xml:space="preserve">
<style type="text/css">
	.st0{fill:none;}
	.st1{fill:none;stroke:#ED6E64;stroke-width:2;stroke-linecap:round;stroke-linejoin:round;stroke-miterlimit:10;}
</style>
<rect x="0" y="0" class="st0" width="30.1" height="30"/>
<path class="st1" d="M25.9,18v-1.5c0-2.6-2.1-4.7-4.7-4.7h0c-2.6,0-4.7,2.1-4.7,4.7v1.2h-1.4c-1.3,0-2.5,0.6-3.2,1.6
	c-0.6,0.7-0.9,1.6-0.9,2.6v0c0,2.3,1.9,4.1,4.1,4.1h9.2c2.3,0,4.1-1.9,4.1-4.1v0C28.4,20.1,27.4,18.6,25.9,18z"/>
<path class="st1" d="M11.8,19c-1.1-0.8-1.9-2.2-1.9-3.7c0-2.5,2.1-4.6,4.6-4.6c1.6,0,2.9,0.8,3.8,2"/>
<line class="st1" x1="14.6" y1="3.1" x2="14.6" y2="7.7"/>
<line class="st1" x1="2.5" y1="15.1" x2="7.1" y2="15.1"/>
<line class="st1" x1="6" y1="6.6" x2="9.3" y2="9.9"/>
<path class="st1" d="M8.5,21.2"/>
<line class="st1" x1="6" y1="23.7" x2="8.5" y2="21.2"/>
<line class="st1" x1="19.9" y1="9.9" x2="23.1" y2="6.6"/>
</svg>
